<svg xmlns="http://www.w3.org/2000/svg" width="320" height="320" viewBox="0 0 320 320" fill="none"><g clip-path="url(#clip0_202_841)"><path fill-rule="evenodd" clip-rule="evenodd" d="M62.1598 260.406H54.8595L47.4334 294.098H54.7337L62.1598 260.406ZM87.1443 283.881H86.9555L78.3546 260.406H70.6768L63.2506 294.098H70.0474L75.3338 270.077L84.2913 294.098H91.5916L99.0177 260.406H92.3048L87.1443 283.881ZM141.498 260.406H131.009L118.842 286.965H118.737L118.275 260.406H107.619L100.192 294.098H107.01L113.199 265.944H113.304L113.471 294.098H120.625L133.337 265.944L127.044 294.098H133.862L141.498 260.406ZM177.433 260.406H151.735L144.309 294.098H170.866L172.188 288.14H152.763L154.693 279.413H171.706L173.027 273.455H155.993L157.567 266.364H176.09L177.412 260.406H177.433ZM196.312 266.364H206.801L208.102 260.406H179.845L178.523 266.364H189.012L182.908 294.098H190.208L196.312 266.364V266.364ZM203.571 294.098H210.724L213.682 280.944H221.213C226.625 280.944 226.52 282.727 225.409 287.238C224.803 289.45 224.555 291.745 224.674 294.035H232.751L232.94 293.154C231.513 292.587 231.786 291.371 232.94 286.441C234.324 280.147 232.94 279.119 230.401 277.902C232.196 277.312 233.803 276.258 235.059 274.847C236.315 273.436 237.176 271.718 237.555 269.867C238.205 266.972 237.953 260.343 228.66 260.343H211.06L203.571 294.098ZM214.878 275.217L217.018 266.259H226.122C230.317 266.259 230.653 268.881 230.317 270.664C229.583 274 227.464 275.259 223.667 275.259L214.878 275.217ZM240.743 277.315C237.261 293.133 248.988 295.063 253.603 295.063C258.218 295.063 270.804 293.133 274.287 277.315C277.769 261.496 266.042 259.566 261.427 259.566C256.812 259.566 244.289 261.434 240.806 277.252L240.743 277.315ZM248.023 277.315C250.12 267.874 256.162 265.545 260.106 265.545C264.05 265.545 269.063 267.874 266.986 277.315C264.91 286.755 258.868 289.105 254.924 289.105C250.98 289.105 246.009 286.692 248.086 277.252L248.023 277.315ZM206.654 218.322H272.126V248.867H45V218.007H110.513V125.552L206.654 218.322ZM45 25H272.126V52.7343H206.654V144.58L110.388 52.6713H45V25Z" fill="#15548B"></path></g><defs><clipPath id="clip0_202_841"><rect width="230" height="270" fill="white" transform="translate(45 25)"></rect></clipPath></defs></svg>